HIERARCHY
ROOT Hips
{
	OFFSET 0.00000 0.00000 0.00000
	CHANNELS 6 Xposition Yposition Zposition Zrotation Yrotation Xrotation 
	JOINT LHipJoint
	{
		OFFSET 0 0 0
		CHANNELS 3 Zrotation Yrotation Xrotation
		JOINT LeftUpLeg
		{
			OFFSET 1.62964 -1.40469 0.78906
			CHANNELS 3 Zrotation Yrotation Xrotation
			JOINT LeftLeg
			{
				OFFSET 2.29640 -6.30932 0.00000
				CHANNELS 3 Zrotation Yrotation Xrotation
				JOINT LeftFoot
				{
					OFFSET 2.29451 -6.30412 0.00000
					CHANNELS 3 Zrotation Yrotation Xrotation
					JOINT LeftToeBase
					{
						OFFSET 0.03611 -0.09921 1.56387
						CHANNELS 3 Zrotation Yrotation Xrotation
						End Site
						{
							OFFSET 0.00000 -0.00000 0.80291
						}
					}
				}
			}
		}
	}
	JOINT RHipJoint
	{
		OFFSET 0 0 0
		CHANNELS 3 Zrotation Yrotation Xrotation
		JOINT RightUpLeg
		{
			OFFSET -1.73712 -1.40469 0.78906
			CHANNELS 3 Zrotation Yrotation Xrotation
			JOINT RightLeg
			{
				OFFSET -2.28137 -6.26801 0.00000
				CHANNELS 3 Zrotation Yrotation Xrotation
				JOINT RightFoot
				{
					OFFSET -2.28681 -6.28298 0.00000
					CHANNELS 3 Zrotation Yrotation Xrotation
					JOINT RightToeBase
					{
						OFFSET -0.15927 -0.43759 1.61103
						CHANNELS 3 Zrotation Yrotation Xrotation
						End Site
						{
							OFFSET -0.00000 -0.00000 0.84630
						}
					}
				}
			}
		}
	}
	JOINT LowerBack
	{
		OFFSET 0 0 0
		CHANNELS 3 Zrotation Yrotation Xrotation
		JOINT Spine
		{
			OFFSET -0.04227 2.04338 -0.00225
			CHANNELS 3 Zrotation Yrotation Xrotation
			JOINT Spine1
			{
				OFFSET -0.02148 2.04482 -0.04273
				CHANNELS 3 Zrotation Yrotation Xrotation
				JOINT Neck
				{
					OFFSET 0 0 0
					CHANNELS 3 Zrotation Yrotation Xrotation
					JOINT Neck1
					{
						OFFSET 0.09180 1.44629 0.19359
						CHANNELS 3 Zrotation Yrotation Xrotation
						JOINT Head
						{
							OFFSET 0.00887 1.40645 0.14750
							CHANNELS 3 Zrotation Yrotation Xrotation
							End Site
							{
								OFFSET -0.00669 1.50671 0.03707
							}
						}
					}
				}
				JOINT LeftShoulder
				{
					OFFSET 0 0 0
					CHANNELS 3 Zrotation Yrotation Xrotation
					JOINT LeftArm
					{
						OFFSET 2.17674 1.86763 -0.06520
						CHANNELS 3 Zrotation Yrotation Xrotation
						JOINT LeftForeArm
						{
							OFFSET 4.65776 -0.00000 0.00000
							CHANNELS 3 Zrotation Yrotation Xrotation
							JOINT LeftHand
							{
								OFFSET 3.55539 -0.00000 0.00000
								CHANNELS 3 Zrotation Yrotation Xrotation
								JOINT LeftFingerBase
								{
									OFFSET 0 0 0
									CHANNELS 3 Zrotation Yrotation Xrotation
									JOINT LeftHandIndex1
									{
										OFFSET 0.70726 -0.00000 0.00000
										CHANNELS 3 Zrotation Yrotation Xrotation
										End Site
										{
											OFFSET 0.57022 -0.00000 0.00000
										}
									}
								}
								JOINT LThumb
								{
									OFFSET 0 0 0
									CHANNELS 3 Zrotation Yrotation Xrotation
									End Site
									{
										OFFSET 0.57892 -0.00000 0.57892
									}
								}
							}
						}
					}
				}
				JOINT RightShoulder
				{
					OFFSET 0 0 0
					CHANNELS 3 Zrotation Yrotation Xrotation
					JOINT RightArm
					{
						OFFSET -2.80694 1.55459 -0.32496
						CHANNELS 3 Zrotation Yrotation Xrotation
						JOINT RightForeArm
						{
							OFFSET -4.71925 -0.00000 -0.00000
							CHANNELS 3 Zrotation Yrotation Xrotation
							JOINT RightHand
							{
								OFFSET -3.56990 -0.00000 0.00000
								CHANNELS 3 Zrotation Yrotation Xrotation
								JOINT RightFingerBase
								{
									OFFSET 0 0 0
									CHANNELS 3 Zrotation Yrotation Xrotation
									JOINT RightHandIndex1
									{
										OFFSET -0.50776 -0.00000 0.00000
										CHANNELS 3 Zrotation Yrotation Xrotation
										End Site
										{
											OFFSET -0.40937 -0.00000 0.00000
										}
									}
								}
								JOINT RThumb
								{
									OFFSET 0 0 0
									CHANNELS 3 Zrotation Yrotation Xrotation
									End Site
									{
										OFFSET -0.41562 -0.00000 0.41562
									}
								}
							}
						}
					}
				}
			}
		}
	}
}
MOTION
Frames: 16
Frame Time: 0.125
0.00 0.00 0.00 0 0 0 0 0 0 -21 0 0 0 0 0 0 0 0 0 0 0 0 0 0 21 0 0 0 0 0 0 0 0 0 0 0 0 0 0 0 0 0 0 0 0 0 0 -16 0 0 21 0 0 11 0 0 0 -8 0 0 0 0 0 0 0 0 0 0 0 0 0 0 0 0 0 0 0 0 8 0 0 0 0 0 0 0 0 0 0 0 0 0 0 0 0 0
0.00 0.00 0.00 182.0280 3.3510 -154.7010 0.0000 0.0000 0.0000 -17.3068 -17.8419 -24.6260 0.9165 6.0999 17.0745 0.5595 1.2793 -14.6500 4.0480 -12.2240 -36.5290 0.0000 0.0000 0.0000 19.8381 17.9481 -29.2684 -1.5374 -7.8275 22.1912 -1.7177 9.4656 -23.5072 -3.5106 11.4791 -33.9131 -6.8108 -3.3397 -25.0721 0.6462 -2.1735 -0.4154 3.9020 -1.3383 13.9514 -0.8837 -7.0891 -1.0668 4.3014 -9.4155 15.5364 1.0457 -4.1026 5.0976 -0.0000 0.0000 0.0000 -83.1213 1.4408 22.7865 13.2134 -21.5991 -2.5313 -0.0000 -0.0000 1.5822 22.1446 -12.4849 -5.0279 -7.1250 0.0000 -0.0000 -3.5393 16.5520 2.3890 -0.0000 0.0000 0.0000 92.2166 -8.5793 12.3812 -21.7823 32.7301 -6.4677 0.0000 -0.0000 -6.1524 -15.6747 -52.8825 12.6127 7.1250 -0.0000 -0.0000 64.8472 -77.1217 -52.3941
0.00 0.00 0.00 181.6930 4.1680 -156.0320 0.0000 0.0000 0.0000 -18.0969 -17.7631 -23.3948 1.0034 6.3741 17.8737 0.6121 1.8627 -15.5693 4.0977 -12.2892 -36.7630 0.0000 0.0000 0.0000 18.5528 16.6632 -37.3663 -4.7002 -13.0380 39.5107 -2.5452 7.1721 -28.8286 -4.3484 12.6101 -37.9260 -8.2178 -3.7391 -23.5518 0.0799 -2.4066 0.2061 3.9813 -1.5628 13.9063 -1.0828 -7.0355 -1.8982 4.9562 -9.4892 15.6300 1.2391 -4.1118 5.3103 -0.0000 -0.0000 0.0000 -81.6619 1.5450 22.3424 13.3566 -21.8074 -2.5842 -0.0000 -0.0000 1.2920 22.5367 -12.4005 -5.0922 -7.1250 0.0000 -0.0000 -3.2637 16.6035 2.1986 -0.0000 -0.0000 0.0000 92.7412 -8.0511 13.2094 -22.5678 33.6128 -6.8975 0.0000 -0.0000 -7.6101 -17.3016 -51.7402 13.7441 7.1250 -0.0000 -0.0000 59.2671 -77.3863 -47.6314
0.00 0.00 0.00 182.2330 4.9057 -156.9830 0.0000 0.0000 0.0000 -17.7645 -17.3415 -22.5954 1.0721 6.5821 18.4829 0.6350 2.5285 -16.1793 4.3997 -12.6741 -38.1605 0.0000 0.0000 0.0000 17.3632 15.7622 -45.9465 -9.5178 -17.1296 57.8642 -2.9706 4.2191 -31.6704 -3.9079 12.0369 -35.8625 -8.5697 -3.7132 -22.2288 -0.1862 -2.3980 0.4083 3.9060 -1.5754 13.3971 -1.1793 -7.2901 -0.9204 5.3184 -9.8579 14.5969 1.3935 -4.3409 4.8615 -0.0000 0.0000 0.0000 -80.6066 1.5447 21.2469 12.9606 -21.2294 -2.4390 -0.0000 -0.0000 1.9078 22.5574 -12.3438 -5.0746 -7.1250 0.0000 -0.0000 -3.2468 16.6623 2.1830 -0.0000 0.0000 0.0000 92.8981 -8.2945 13.2209 -22.9717 34.0579 -7.1225 0.0000 -0.0000 -6.5180 -13.2961 -53.4731 10.7525 7.1250 -0.0000 -0.0000 68.1622 -76.3579 -54.6240
0.00 0.00 0.00 183.3200 4.4743 -158.0570 0.0000 0.0000 0.0000 -16.6262 -17.9521 -20.9641 1.1554 6.8247 19.1970 0.7103 3.3107 -17.4595 4.3430 -12.6033 -37.9011 0.0000 0.0000 0.0000 15.1621 14.5603 -55.1041 -15.3053 -19.4632 76.1546 -3.2364 1.3917 -33.7541 -2.6677 10.1367 -29.4205 -9.0054 -4.0125 -21.9482 0.0580 -2.7755 1.0390 4.2884 -1.8591 14.0749 -1.0524 -7.6470 -1.0369 4.8991 -10.3134 15.0829 1.2102 -4.5646 5.0195 -0.0000 -0.0000 0.0000 -80.2672 1.0783 19.5352 12.7708 -20.9505 -2.3707 -0.0000 -0.0000 2.5690 23.1012 -11.8871 -5.0214 -7.1250 0.0000 -0.0000 -2.8477 17.0997 1.8868 -0.0000 -0.0000 0.0000 92.3586 -8.6725 14.3871 -23.7134 34.8597 -7.5421 0.0000 -0.0000 -8.8164 -16.9262 -52.0990 13.5029 7.1250 -0.0000 -0.0000 60.9760 -77.3663 -49.1406
0.00 0.00 0.00 193.8740 -1.5711 -165.6810 0.0000 0.0000 0.0000 -4.0447 -18.0561 -14.4355 3.4553 11.3980 33.6341 2.2631 -1.4780 -28.0701 4.5285 -12.8323 -38.7441 0.0000 0.0000 0.0000 -7.7083 4.8181 -61.8046 -7.6015 -15.8182 51.1142 -0.3748 -9.7372 -18.9087 -0.6391 5.1148 -14.2362 -8.6818 -4.1099 -19.8561 1.7372 -3.5366 2.1700 5.8085 -2.3904 14.4159 -0.0456 -9.8323 -0.7213 6.0674 -13.4426 17.2138 1.2160 -5.7859 5.7562 -0.0000 -0.0000 0.0000 -74.5154 6.7459 23.7117 17.2287 -27.1582 -4.1912 -0.0000 0.0000 -1.5905 21.5781 -11.1613 -4.3777 -7.1250 0.0000 -0.0000 -3.8860 18.0172 2.4993 -0.0000 -0.0000 0.0000 92.6737 -11.7986 8.6759 -22.1962 33.1981 -6.6930 0.0000 -0.0000 -6.9044 -14.6262 -50.0995 11.3212 7.1250 -0.0000 -0.0000 54.6171 -75.6224 -41.8212
0.00 0.00 0.00 197.2190 -2.8318 -167.5000 0.0000 0.0000 0.0000 1.1039 -17.2142 -12.9796 4.5087 12.8082 38.6547 2.8651 -3.0572 -31.3057 4.8454 -13.2075 -40.1504 0.0000 0.0000 0.0000 -10.5235 5.5260 -54.8316 -3.3905 -11.3019 33.3048 0.5427 -15.1332 -14.0366 -0.4590 4.3462 -12.0527 -8.3347 -3.9165 -18.6558 2.0760 -3.6486 1.4526 5.9992 -2.4055 12.8759 -0.0770 -10.3208 -0.6530 6.4945 -14.1504 18.3682 1.2932 -5.9897 6.1712 0.0000 0.0000 0.0000 -70.6344 9.7526 25.0483 19.0841 -29.5231 -5.0722 -0.0000 0.0000 -2.2362 21.3646 -10.9781 -4.2603 -7.1250 0.0000 -0.0000 -4.0308 18.2305 2.5738 0.0000 0.0000 0.0000 93.6451 -15.5729 8.0396 -22.3012 33.3157 -6.7505 0.0000 -0.0000 -7.1139 -13.5732 -49.6626 10.4274 7.1250 -0.0000 -0.0000 53.9006 -75.0029 -40.6047
0.00 0.00 0.00 198.9520 -6.4057 -169.1680 0.0000 0.0000 0.0000 10.1562 -17.3075 -0.4644 3.9829 12.1376 36.2204 4.0201 -0.3264 -38.0218 7.5045 -15.7425 -50.7578 0.0000 0.0000 0.0000 -11.5647 2.8288 -49.7410 -1.1758 -6.8823 19.3671 2.0992 -26.5434 0.6129 -0.4409 4.2608 -11.8116 -10.1365 -6.1820 -17.6753 2.2802 -6.3738 1.7932 6.4090 -3.8381 13.4502 -0.3314 -8.7920 -0.3005 6.3288 -11.9514 19.9230 1.4273 -4.8323 6.5237 0.0000 -0.0000 0.0000 -62.5329 11.8627 27.1417 25.3945 -36.6045 -8.5240 -0.0000 0.0000 -5.6477 22.1019 -10.6183 -4.2794 -7.1250 0.0000 -0.0000 -3.4998 18.5529 2.2085 0.0000 -0.0000 0.0000 94.1219 -27.8836 5.4786 -23.7113 34.8575 -7.5409 0.0000 -0.0000 -6.1212 -12.5943 -50.6771 9.8059 7.1250 -0.0000 -0.0000 58.0257 -75.1021 -44.2262
0.00 0.00 0.00 183.4810 -3.0616 -157.5750 0.0000 0.0000 0.0000 5.9184 -16.6872 -4.9695 4.6171 12.9391 39.1411 2.6043 0.8797 -30.8836 8.6795 -16.5970 -54.9751 0.0000 0.0000 0.0000 -10.5531 -7.1149 -88.3741 -11.7756 -18.2942 65.2756 -0.1488 -2.4467 -8.6165 -3.0845 10.8306 -31.7107 -6.4287 -4.4741 -4.4602 1.5960 -5.7191 4.1084 4.6078 -3.2394 7.6438 -0.0199 -6.5888 -0.1490 4.1874 -8.9269 6.4008 1.1391 -4.3016 2.2527 0.0000 -0.0000 0.0000 -66.1164 -2.6313 33.0547 35.3455 -45.0572 -15.0574 -0.0000 0.0000 -10.0919 26.0533 -13.1711 -6.3564 -7.1250 0.0000 -0.0000 -0.8828 15.3808 0.6171 0.0000 -0.0000 0.0000 78.3819 -16.2190 24.6391 -22.1297 33.1233 -6.6566 0.0000 -0.0000 -3.3984 -10.0492 -45.3788 7.1890 7.1250 -0.0000 -0.0000 45.1329 -71.2131 -30.0065
0.00 0.00 0.00 178.5280 -0.8943 -152.8130 0.0000 0.0000 0.0000 4.4400 -16.4171 -8.1646 3.9166 12.0486 35.9042 0.1155 8.6859 -14.3507 9.2003 -16.9349 -56.7802 0.0000 0.0000 0.0000 -13.2382 -5.6091 -94.9292 -13.5558 -18.9737 70.8431 -0.3733 -4.2052 -13.8632 -3.0059 10.7046 -31.2899 -2.1157 -4.0888 -0.4506 1.0414 -5.6834 4.7301 1.9396 -3.0319 5.4619 1.4902 -5.9770 -0.9557 1.9185 -8.0573 3.8316 0.2274 -3.9630 1.3611 0.0000 -0.0000 0.0000 -62.8824 -14.2777 40.0676 36.9343 -46.1450 -16.1926 -0.0000 0.0000 -10.1961 26.6636 -14.2043 -7.0245 -7.1250 0.0000 -0.0000 -0.5478 14.1660 0.3971 0.0000 -0.0000 0.0000 67.6218 -4.7717 31.8598 -27.6825 38.8223 -9.9240 0.0000 -0.0000 -9.4168 -12.2379 -45.5127 8.7960 7.1250 -0.0000 -0.0000 43.3311 -72.0659 -29.4244
0.00 0.00 0.00 173.4440 -0.4894 -149.3180 0.0000 0.0000 0.0000 2.2970 -17.1948 -5.8986 1.4166 7.5274 21.2875 -1.0744 20.5522 3.0555 6.6008 -14.9863 -47.3480 0.0000 0.0000 0.0000 -16.7465 -4.5771 -95.1928 -13.9585 -19.1014 72.0778 -0.7369 -5.2252 -18.9420 -2.6638 10.1299 -29.3984 -0.1809 -4.4782 1.0090 0.2656 -6.2220 4.3327 0.2128 -3.2023 3.9484 1.5842 -5.5482 -1.6674 1.0357 -7.4755 3.0072 -0.0533 -3.7002 1.1798 0.0000 -0.0000 0.0000 -57.7099 -20.5112 42.8293 40.1211 -48.1415 -18.5294 -0.0000 0.0000 -9.8846 26.1510 -15.6980 -7.5673 -7.1250 0.0000 -0.0000 -1.0208 12.5965 0.7737 0.0000 -0.0000 0.0000 59.7691 3.7408 32.1571 -30.2417 41.0997 -11.5682 0.0000 -0.0000 -9.5124 -12.8590 -44.4137 9.0766 7.1250 -0.0000 -0.0000 40.1844 -71.5288 -26.6432
0.00 0.00 0.00 169.8650 -0.3715 -143.8090 0.0000 0.0000 0.0000 0.7775 -15.4436 -27.3799 7.0390 15.3646 49.0215 -3.1009 31.7515 0.8517 1.0265 -6.4449 -18.0808 0.0000 0.0000 0.0000 -10.8453 2.6773 -84.9920 -10.4019 -17.6297 60.8233 -1.3986 -1.8709 -23.0884 -1.8712 8.5926 -24.5290 0.5094 -3.1891 -2.8734 0.3963 -4.3995 3.4108 -0.1974 -2.2055 5.1285 1.6940 -5.0743 -3.8414 -0.4939 -6.8004 6.4218 -0.6743 -3.3340 2.6182 0.0000 -0.0000 0.0000 -58.2237 -24.0650 40.5854 45.0599 -50.7978 -22.2851 -0.0000 0.0000 -11.9956 27.2079 -15.5505 -7.8474 -7.1250 0.0000 -0.0000 -0.3011 12.6054 0.2281 0.0000 -0.0000 0.0000 54.8979 13.4728 21.7341 -33.2788 43.5433 -13.6138 0.0000 -0.0000 -10.2810 -15.6035 -46.0603 11.3702 7.1250 -0.0000 -0.0000 41.3588 -73.6468 -29.2737
0.00 0.00 0.00 171.5710 1.3131 -144.6470 0.0000 0.0000 0.0000 -1.8082 -15.4577 -35.0293 12.5703 18.6215 67.7856 -1.7673 24.1954 -0.2553 4.1038 -12.2973 -36.7919 0.0000 0.0000 0.0000 -4.5276 6.0687 -78.7616 -8.6480 -16.5758 54.8647 -1.4367 1.3696 -22.2638 -1.6595 8.1176 -23.0719 -0.4299 -2.8939 -4.4035 0.6560 -3.9112 2.7305 0.5652 -1.9797 5.3716 1.0158 -4.4359 -2.2109 -1.0122 -5.7319 8.3851 -0.6810 -2.7767 2.9951 0.0000 0.0000 0.0000 -60.6342 -18.5774 41.1555 42.6457 -49.5615 -20.4307 -0.0000 0.0000 -10.2203 26.3079 -15.5528 -7.5512 -7.1250 0.0000 -0.0000 -0.9030 12.7331 0.6819 0.0000 0.0000 0.0000 58.2030 12.2114 26.6329 -34.2055 44.2364 -14.2562 0.0000 -0.0000 -9.5882 -14.7015 -46.6368 10.7994 7.1250 -0.0000 -0.0000 43.7912 -73.6933 -31.1924
0.00 0.00 0.00 174.4440 1.7060 -146.3610 0.0000 0.0000 0.0000 -9.5955 -21.7682 -46.1239 15.1110 19.4170 75.5709 -0.2822 10.5532 -9.0630 5.5007 -13.9264 -42.9435 0.0000 0.0000 0.0000 4.8586 10.9162 -61.3133 -4.2895 -12.5359 37.6553 -1.2646 2.2816 -20.6292 -1.3473 7.3484 -20.7517 -0.9383 -2.0366 -8.8105 0.9471 -2.6782 2.4964 1.1145 -1.3757 7.6714 1.0234 -3.9751 -2.3944 -1.2047 -4.9209 11.3864 -0.7774 -2.2952 4.0830 0.0000 0.0000 0.0000 -66.8018 -11.5472 41.8659 31.1001 -41.8178 -12.1365 -0.0000 0.0000 -6.2839 25.1711 -14.4930 -6.7078 -7.1250 0.0000 -0.0000 -1.5822 14.0443 1.1514 0.0000 0.0000 0.0000 65.8815 6.7901 31.9104 -32.0314 42.5722 -12.7620 0.0000 -0.0000 -9.8757 -10.7165 -46.5294 7.8203 7.1250 -0.0000 -0.0000 47.2645 -72.1806 -32.5217
0.00 0.00 0.00 175.6340 0.4385 -147.7710 0.0000 0.0000 0.0000 -13.8415 -25.4801 -46.1229 9.8218 17.3084 58.8912 0.3760 3.4406 -13.3654 5.2748 -13.6867 -41.9966 0.0000 0.0000 0.0000 10.1393 11.8319 -49.2220 -2.0806 -9.0320 25.8954 -1.0342 0.7339 -18.9943 -1.1574 6.8303 -19.2136 -1.9034 -1.6866 -11.7255 1.1206 -2.0718 1.6096 1.8757 -1.1284 8.4229 0.7686 -4.0680 -2.7872 -0.7953 -4.8073 15.1833 -0.5936 -2.1049 4.9755 -0.0000 0.0000 0.0000 -69.9850 -5.0560 41.0471 26.7310 -37.9215 -9.3333 -0.0000 0.0000 -5.4919 24.3967 -13.2961 -5.9550 -7.1250 0.0000 -0.0000 -2.0281 15.4393 1.4159 -0.0000 0.0000 0.0000 71.6729 1.3268 30.5501 -28.8910 39.9237 -10.6907 0.0000 -0.0000 -8.8515 -9.8167 -48.4541 7.3787 7.1250 -0.0000 -0.0000 53.1671 -72.9714 -37.9752
0.00 0.00 0.00 176.8190 -0.7813 -149.0950 0.0000 0.0000 0.0000 -13.9609 -29.4251 -41.6706 5.0358 13.4240 40.9772 0.5891 -0.2845 -14.4079 5.9978 -14.4262 -44.9727 0.0000 0.0000 0.0000 14.3290 11.9744 -40.3937 -1.0669 -6.5667 18.4379 -0.9071 0.4780 -17.8484 -0.9517 6.2127 -17.4028 -2.9654 -1.4798 -14.8707 1.2898 -1.6132 0.8352 2.7027 -0.9810 9.3991 0.5400 -4.6733 -2.6419 0.1919 -5.5127 17.5140 -0.3046 -2.2749 5.7065 0.0000 -0.0000 0.0000 -72.2529 0.4763 37.3863 23.7919 -34.9434 -7.5870 -0.0000 0.0000 -3.6691 23.5445 -14.1262 -6.0703 -7.1250 0.0000 -0.0000 -2.6625 14.6406 1.9052 0.0000 -0.0000 0.0000 76.0462 -2.7528 29.3579 -25.4637 36.6742 -8.5653 0.0000 -0.0000 -6.9324 -11.6954 -46.1477 8.4903 7.1250 -0.0000 -0.0000 45.3988 -72.2885 -31.1884
